<svg xmlns="http://www.w3.org/2000/svg" id="calender-icon" shape-rendering="geometricPrecision" text-rendering="geometricPrecision" image-rendering="optimizeQuality" fill-rule="evenodd" clip-rule="evenodd" viewBox="0 0 512 506.49"><path fill-rule="nonzero" d="M294.24 17.11C294.24 7.69 303.53 0 315.1 0s20.87 7.65 20.87 17.11v74.85c0 9.42-9.3 17.11-20.87 17.11s-20.86-7.65-20.86-17.11V17.11zm145.02 345.22v19.94c0 4.69-3.91 8.61-8.6 8.61h-34.24v34.26c0 4.67-3.92 8.59-8.61 8.59h-19.96c-4.67 0-8.59-3.86-8.59-8.59v-34.26h-34.27c-4.69 0-8.61-3.87-8.61-8.61v-19.94c0-4.74 3.88-8.61 8.61-8.61h34.27v-34.26c0-4.73 3.86-8.59 8.59-8.59h19.96c4.74 0 8.61 3.92 8.61 8.59v34.26h34.24c4.74 0 8.6 3.97 8.6 8.61zm-61.44-124.22c36.98 0 70.56 15.04 94.83 39.35C496.96 301.7 512 335.25 512 372.31c0 36.99-15.04 70.56-39.3 94.83-24.32 24.31-57.89 39.35-94.88 39.35-37.03 0-70.56-15.04-94.84-39.3-24.32-24.27-39.34-57.86-39.34-94.88 0-37.06 15.04-70.61 39.31-94.89l.69-.63c24.24-23.9 57.53-38.68 94.18-38.68zm78.74 55.41c-20.09-20.11-47.96-32.58-78.74-32.58-30.5 0-58.14 12.25-78.19 32.02l-.55.6c-20.15 20.14-32.62 48-32.62 78.75s12.46 58.6 32.61 78.75c20.1 20.13 47.98 32.6 78.75 32.6 30.76 0 58.65-12.47 78.77-32.58 20.11-20.12 32.58-48.01 32.58-78.77 0-30.75-12.47-58.61-32.61-78.79zM56.81 242.28c-1.18 0-2.24-5.2-2.24-11.57 0-6.38.94-11.53 2.24-11.53h56.94c1.19 0 2.25 5.2 2.25 11.53 0 6.39-.94 11.57-2.25 11.57H56.81zm90.78 0c-1.19 0-2.24-5.2-2.24-11.57 0-6.38.93-11.53 2.24-11.53h56.94c1.18 0 2.24 5.2 2.24 11.53 0 6.39-.94 11.57-2.24 11.57h-56.94zm90.77 0c-1.18 0-2.24-5.2-2.24-11.57 0-6.38.93-11.53 2.24-11.53h56.94c1.18 0 2.24 5.15 2.24 11.49a175.09 175.09 0 0 0-16.44 11.61h-42.74zM56.94 308.52c-1.18 0-2.24-5.2-2.24-11.57 0-6.39.93-11.58 2.24-11.58h56.94c1.18 0 2.24 5.19 2.24 11.58 0 6.37-.93 11.57-2.24 11.57H56.94zm90.77 0c-1.18 0-2.24-5.2-2.24-11.57 0-6.39.93-11.58 2.24-11.58h56.94c1.18 0 2.24 5.19 2.24 11.58 0 6.37-.93 11.57-2.24 11.57h-56.94zM57.06 374.8c-1.18 0-2.24-5.2-2.24-11.59 0-6.36.94-11.56 2.24-11.56H114c1.19 0 2.25 5.2 2.25 11.56 0 6.39-.94 11.59-2.25 11.59H57.06zm90.78 0c-1.19 0-2.25-5.2-2.25-11.59 0-6.36.94-11.56 2.25-11.56h56.94c1.18 0 2.24 5.2 2.24 11.56 0 6.39-.94 11.59-2.24 11.59h-56.94zM106.83 17.11c0-9.42 9.29-17.11 20.86-17.11s20.86 7.65 20.86 17.11v74.85c0 9.42-9.32 17.11-20.86 17.11-11.57 0-20.86-7.65-20.86-17.11V17.11zM22.98 163.64h397.39V77.46c0-5.79-4.73-10.51-10.52-10.51h-38.1c-6.39 0-11.57-5.2-11.57-11.57 0-6.38 5.18-11.58 11.57-11.58h38.1c18.59 0 33.7 15.12 33.7 33.71v136.81c-7.59-2.62-15.41-4.73-23.44-6.29v-21.38h.26H22.98v223.16c0 5.78 4.72 10.51 10.51 10.51h188.86c2.15 8.02 4.86 15.84 8.12 23.36H33.71C15.13 443.68 0 428.61 0 410.02V77.55c0-18.6 15.1-33.71 33.71-33.71h40.67c6.38 0 11.58 5.21 11.58 11.57 0 6.39-5.2 11.59-11.58 11.59H33.71c-5.79 0-10.53 4.7-10.53 10.51v86.16h-.2v-.03zm158.94-96.69c-6.37 0-11.57-5.2-11.57-11.57 0-6.38 5.2-11.58 11.57-11.58h77.55c6.39 0 11.59 5.2 11.59 11.58 0 6.37-5.2 11.57-11.59 11.57h-77.55z"/></svg>